<svg width="24" height="24" viewBox="0 0 24 24" fill="none" xmlns="http://www.w3.org/2000/svg">
<rect width="24" height="24" rx="4" fill="url(#paint0_linear_515_26182)"/>
<path d="M10.0641 5.60352H5.79883V11.6766H10.0641V5.60352Z" fill="white"/>
<path d="M14.7419 11.5734C14.7745 11.541 14.8004 11.5024 14.818 11.46C14.8357 11.4175 14.8447 11.372 14.8447 11.326V8.85989C14.8447 8.67512 14.9181 8.49793 15.0487 8.36728C15.1794 8.23663 15.3566 8.16323 15.5413 8.16323C15.7261 8.16323 15.9033 8.23663 16.0339 8.36728C16.1646 8.49793 16.238 8.67512 16.238 8.85989V14.0395C16.2384 14.0853 16.2479 14.1306 16.2658 14.1727C16.2837 14.2148 16.3098 14.253 16.3425 14.2851C16.3748 14.3175 16.4133 14.3432 16.4555 14.3607C16.4978 14.3782 16.5432 14.3872 16.5889 14.3872C16.6347 14.3872 16.68 14.3782 16.7223 14.3607C16.7646 14.3432 16.803 14.3175 16.8354 14.2851C16.868 14.2527 16.8938 14.2141 16.9115 14.1717C16.9291 14.1293 16.9382 14.0837 16.9381 14.0378V12.371C16.9381 12.1863 17.0115 12.0091 17.1422 11.8784C17.2728 11.7478 17.45 11.6744 17.6348 11.6744H18.1956V5.60303H13.9355V11.6761H14.4946C14.5406 11.6761 14.5861 11.6671 14.6285 11.6495C14.671 11.6318 14.7095 11.606 14.7419 11.5734Z" fill="white"/>
<path d="M17.3914 12.1254C17.3266 12.1907 17.2903 12.279 17.2904 12.371V14.0377C17.2908 14.176 17.2501 14.3112 17.1735 14.4262C17.0969 14.5413 16.9878 14.6309 16.86 14.6838C16.7323 14.7366 16.5918 14.7503 16.4563 14.723C16.3207 14.6957 16.1964 14.6288 16.0991 14.5306C15.9683 14.4006 15.8943 14.2239 15.8936 14.0395V8.8616C15.8936 8.81563 15.8845 8.77012 15.8669 8.72767C15.8493 8.68522 15.8234 8.64669 15.7908 8.61428C15.7238 8.5507 15.635 8.51526 15.5426 8.51526C15.4503 8.51526 15.3614 8.5507 15.2944 8.61428C15.2297 8.67959 15.1934 8.76787 15.1934 8.85985V11.326C15.1934 11.5108 15.12 11.688 14.9894 11.8186C14.8587 11.9493 14.6815 12.0227 14.4968 12.0227H13.936V12.5539C13.936 14.0778 13.1296 14.6874 12.001 14.6874C10.8724 14.6874 10.066 14.0255 10.066 12.4668V12.0244H5.80078V12.5208C5.80078 16.6868 8.21643 18.3971 11.9644 18.3971C15.7124 18.3971 18.2012 16.7129 18.2012 12.4302V12.0227H17.6404C17.5942 12.0224 17.5483 12.0313 17.5056 12.049C17.4628 12.0666 17.424 12.0926 17.3914 12.1254Z" fill="white"/>
<defs>
<linearGradient id="paint0_linear_515_26182" x1="1.28" y1="4.08" x2="23.717" y2="10.1887" gradientUnits="userSpaceOnUse">
<stop stop-color="#FF6A13"/>
<stop offset="1" stop-color="#D40F7D"/>
</linearGradient>
</defs>
</svg>
