<svg width="154" height="31" viewBox="0 0 154 31" fill="none" xmlns="http://www.w3.org/2000/svg">
<g clip-path="url(#clip0_768_2225)">
<path d="M11.0355 9.07599H9.81809V16.3926C9.81809 19.3408 7.83222 21.1619 5.07424 21.1619C2.59638 21.1619 1.21737 19.9096 1.21737 16.8685V9.06885H0V17.0724C0 20.6288 2.07207 22.2459 5.02756 22.2459C7.13913 22.2459 8.97777 21.1941 9.81449 19.4982V21.9168H11.0319L11.0355 9.07599Z" fill="white"/>
<path d="M20.9296 8.75403C18.8216 8.75403 16.9794 9.80233 16.1427 11.5018V9.07602H14.9253V21.9168H16.1427V14.6145C16.1427 11.6628 18.1322 9.84526 20.8901 9.84526C23.3249 9.84526 24.7434 11.1369 24.7434 14.1386V21.9168H25.9608V13.9275C25.9608 10.3712 23.7307 8.75403 20.9332 8.75403" fill="white"/>
<path d="M30.3193 5.05457C30.1181 5.05457 29.9215 5.11405 29.7543 5.22546C29.5871 5.33688 29.4568 5.49522 29.38 5.68044C29.3032 5.86567 29.2833 6.06944 29.3228 6.26594C29.3623 6.46245 29.4594 6.64286 29.6019 6.78432C29.7444 6.92578 29.9258 7.02192 30.1232 7.06058C30.3206 7.09924 30.525 7.07869 30.7107 7.00151C30.8963 6.92433 31.0548 6.79398 31.166 6.627C31.2773 6.46002 31.3362 6.26392 31.3355 6.06351C31.3309 5.79675 31.2222 5.54226 31.0325 5.35393C30.8428 5.16561 30.587 5.05824 30.3193 5.05457ZM30.9298 9.07603H29.7303V21.9168H30.9477L30.9298 9.07603Z" fill="white"/>
<path d="M41.32 8.75409C40.2354 8.72374 39.1644 8.99997 38.2308 9.55082C37.2972 10.1017 36.5393 10.9046 36.0447 11.8668V9.07608H34.8273V30.5036H36.0447V19.1405C36.5393 20.1026 37.2972 20.9056 38.2308 21.4564C39.1644 22.0073 40.2354 22.2835 41.32 22.2532C45.1338 22.2532 47.9312 19.3015 47.9312 15.5018C47.9312 11.7022 45.1338 8.75409 41.32 8.75409ZM41.32 21.162C38.1562 21.162 35.9656 18.7755 35.9656 15.5018C35.9656 12.2281 38.1562 9.84532 41.32 9.84532C44.4838 9.84532 46.6743 12.2281 46.6743 15.5018C46.6743 18.7755 44.4838 21.162 41.32 21.162Z" fill="white"/>
<path d="M52.1681 0.5H50.9507V21.9168H52.1681V14.6145C52.1681 11.6628 54.1144 9.84526 56.9119 9.84526C59.3467 9.84526 60.7688 11.1369 60.7688 14.1386V21.9168H61.9862V13.9275C61.9862 10.3712 59.7525 8.75403 56.9586 8.75403C55.984 8.72806 55.0212 8.97092 54.1765 9.45581C53.3317 9.94071 52.6379 10.6488 52.1716 11.5018L52.1681 0.5Z" fill="white"/>
<path d="M71.5069 8.75397C70.1614 8.7291 68.8389 9.10391 67.7081 9.83063C66.5772 10.5574 65.6891 11.6031 65.157 12.8345C64.6249 14.066 64.4728 15.4274 64.7202 16.7453C64.9676 18.0632 65.6033 19.2778 66.5461 20.2345C67.489 21.1911 68.6964 21.8463 70.0144 22.1167C71.3325 22.3871 72.7015 22.2605 73.947 21.7528C75.1925 21.2451 76.2581 20.3795 77.008 19.2662C77.7579 18.153 78.1581 16.8425 78.1576 15.5017C78.1728 14.6216 78.0121 13.7474 77.6848 12.9298C77.3575 12.1122 76.8701 11.3677 76.2511 10.7397C75.6321 10.1116 74.8939 9.6126 74.0793 9.27169C73.2648 8.93077 72.3903 8.75479 71.5069 8.75397ZM71.5069 21.2012C68.3826 21.2012 66.1202 18.7361 66.1202 15.5017C66.1202 12.2674 68.3934 9.80227 71.5069 9.80227C74.6204 9.80227 76.8935 12.271 76.8935 15.5017C76.8935 18.7325 74.6204 21.2012 71.5069 21.2012Z" fill="white"/>
<path d="M86.2481 8.75399C84.5854 8.75399 83.2064 9.76293 82.3948 11.3407V9.07598H81.1774V21.9168H82.3948V14.4928C82.3948 11.8631 84.1365 9.88457 86.1655 9.88457C86.7262 9.8365 87.2892 9.94818 87.7887 10.2066L88.234 9.19764C87.6324 8.85275 86.9399 8.69804 86.2481 8.75399Z" fill="white"/>
<path d="M95.2295 8.75403C91.6599 8.75403 88.7368 11.7021 88.7368 15.5018C88.7368 19.3014 91.5378 22.2531 95.5132 22.2531C97.9875 22.2531 99.7722 21.3623 100.95 19.8667L100.139 19.1512C99.1223 20.4034 97.8259 21.212 95.5132 21.212C92.4715 21.212 90.1265 19.1512 89.9972 15.7558H101.6C101.518 11.6342 99.0432 8.76475 95.2295 8.76475V8.75403ZM90.0367 14.7039C90.3599 11.8775 92.3889 9.81305 95.2295 9.81305C98.4327 9.81305 100.016 11.9598 100.34 14.7039H90.0367Z" fill="white"/>
<path d="M137.895 5.35864C137.476 5.35817 137.062 5.44006 136.675 5.5996C136.288 5.75914 135.936 5.9932 135.641 6.28837C135.345 6.58353 135.11 6.934 134.95 7.31965C134.791 7.70531 134.709 8.11856 134.71 8.53575L134.731 18.661C134.731 19.8946 134.24 21.0776 133.364 21.9499C132.489 22.8221 131.301 23.3122 130.063 23.3122C129.45 23.3122 128.843 23.1918 128.277 22.9581C127.71 22.7244 127.195 22.3818 126.762 21.9499C126.328 21.518 125.985 21.0052 125.75 20.4409C125.515 19.8766 125.395 19.2718 125.395 18.661L125.43 8.53219C125.43 7.69081 125.094 6.88414 124.497 6.2892C123.899 5.69425 123.09 5.35959 122.245 5.35864C121.401 5.35959 120.591 5.69425 119.994 6.2892C119.397 6.88414 119.061 7.69081 119.06 8.53219V18.7862C119.06 18.9306 119.032 19.0736 118.977 19.2071C118.922 19.3406 118.84 19.4618 118.738 19.5639C118.636 19.666 118.514 19.7469 118.38 19.8019C118.246 19.857 118.102 19.8851 117.957 19.8846C117.665 19.8846 117.385 19.7689 117.178 19.5629C116.971 19.3569 116.855 19.0775 116.855 18.7862V11.9526C116.854 11.1112 116.518 10.3045 115.921 9.70959C115.324 9.11464 114.514 8.78001 113.67 8.77906C112.825 8.78 112.016 9.11403 111.418 9.7081C110.821 10.3022 110.484 11.1079 110.481 11.949V15.3551C110.48 15.6461 110.363 15.9249 110.157 16.1307C109.95 16.3365 109.67 16.4525 109.378 16.4535C109.086 16.4525 108.806 16.3365 108.6 16.1307C108.393 15.9249 108.277 15.6461 108.276 15.3551V14.6825C108.276 14.4082 108.166 14.1452 107.972 13.9513C107.777 13.7574 107.513 13.6485 107.238 13.6485C106.963 13.6485 106.699 13.7574 106.504 13.9513C106.309 14.1452 106.2 14.4082 106.2 14.6825V15.3551C106.201 16.1964 106.537 17.0031 107.134 17.5981C107.731 18.193 108.541 18.5277 109.385 18.5286C110.23 18.5277 111.04 18.193 111.637 17.5981C112.234 17.0031 112.57 16.1964 112.571 15.3551V11.949C112.571 11.6577 112.687 11.3783 112.894 11.1723C113.1 10.9663 113.381 10.8506 113.673 10.8506C113.966 10.8506 114.246 10.9663 114.453 11.1723C114.66 11.3783 114.776 11.6577 114.776 11.949V18.7862C114.777 19.6276 115.113 20.4342 115.71 21.0292C116.307 21.6241 117.116 21.9588 117.961 21.9597C118.38 21.9607 118.795 21.8793 119.182 21.7201C119.569 21.561 119.92 21.3274 120.217 21.0325C120.513 20.7377 120.748 20.3875 120.908 20.002C121.068 19.6166 121.15 19.2034 121.15 18.7862V8.53575C121.149 8.24509 121.264 7.96604 121.469 7.75937C121.571 7.65622 121.692 7.57453 121.826 7.5192C121.96 7.46387 122.104 7.43606 122.249 7.43738C122.393 7.43691 122.537 7.46487 122.67 7.51968C122.804 7.57449 122.926 7.65506 123.028 7.75677C123.131 7.85848 123.212 7.97933 123.267 8.11239C123.323 8.24545 123.351 8.38811 123.351 8.53219L123.319 18.661C123.319 20.4471 124.031 22.1602 125.298 23.4235C126.566 24.6869 128.285 25.3971 130.077 25.398C131.87 25.3961 133.588 24.6855 134.854 23.4223C136.121 22.159 136.832 20.4465 136.832 18.661L136.811 8.53219C136.812 8.2415 136.928 7.96303 137.135 7.75782C137.342 7.5526 137.621 7.43738 137.913 7.43738C138.205 7.43832 138.485 7.55433 138.692 7.76011C138.898 7.96589 139.015 8.24473 139.016 8.53575V18.7898C139.018 19.6312 139.356 20.4373 139.953 21.0319C140.551 21.6266 141.36 21.9614 142.205 21.9633C143.049 21.9624 143.859 21.6277 144.456 21.0328C145.053 20.4378 145.389 19.6312 145.39 18.7898V11.9526C145.39 11.6613 145.506 11.3819 145.713 11.1759C145.92 10.9699 146.2 10.8542 146.492 10.8542C146.637 10.8537 146.78 10.8817 146.914 10.9365C147.048 10.9913 147.169 11.0719 147.272 11.1736C147.374 11.2753 147.455 11.3961 147.511 11.5292C147.566 11.6623 147.595 11.8049 147.595 11.949V15.3551C147.596 16.1964 147.932 17.0031 148.529 17.5981C149.126 18.193 149.936 18.5277 150.78 18.5286C151.625 18.5277 152.435 18.1925 153.033 17.5968C153.63 17.0011 153.965 16.1935 153.965 15.3515V14.6896C153.965 14.4154 153.856 14.1524 153.661 13.9585C153.467 13.7646 153.203 13.6556 152.928 13.6556C152.652 13.6556 152.388 13.7646 152.194 13.9585C151.999 14.1524 151.89 14.4154 151.89 14.6896V15.3551C151.889 15.6458 151.772 15.9242 151.566 16.1294C151.359 16.3347 151.079 16.4499 150.787 16.4499C150.496 16.4499 150.216 16.3347 150.009 16.1294C149.802 15.9242 149.686 15.6458 149.685 15.3551V11.949C149.684 11.1076 149.348 10.301 148.751 9.70603C148.154 9.11108 147.344 8.77642 146.5 8.77548C145.655 8.77642 144.845 9.11108 144.248 9.70603C143.651 10.301 143.315 11.1076 143.314 11.949V18.7898C143.314 19.0811 143.198 19.3605 142.991 19.5665C142.785 19.7725 142.504 19.8882 142.212 19.8882C141.919 19.8882 141.639 19.7725 141.432 19.5665C141.225 19.3605 141.109 19.0811 141.109 18.7898V8.53575C141.109 7.69375 140.774 6.88618 140.177 6.29046C139.579 5.69474 138.769 5.35959 137.924 5.35864H137.895Z" fill="url(#paint0_linear_768_2225)"/>
</g>
<defs>
<linearGradient id="paint0_linear_768_2225" x1="106.175" y1="15.3801" x2="153.947" y2="15.3801" gradientUnits="userSpaceOnUse">
<stop stop-color="#FF6C0E"/>
<stop offset="1" stop-color="#EB008B"/>
</linearGradient>
<clipPath id="clip0_768_2225">
<rect width="153.947" height="30" fill="white" transform="translate(0 0.5)"/>
</clipPath>
</defs>
</svg>
