<svg width="25" height="24" viewBox="0 0 25 24" fill="none" xmlns="http://www.w3.org/2000/svg">
<rect x="0.5" width="24" height="24" rx="4" fill="#6D6F79"/>
<g clip-path="url(#clip0_515_26223)">
<path d="M11.258 11.7493C11.3186 11.6882 11.3526 11.6057 11.3525 11.5196V10.2835C11.3524 10.1975 11.3694 10.1124 11.4024 10.033C11.4353 9.95365 11.4837 9.88158 11.5447 9.82097C11.6687 9.70212 11.8338 9.63577 12.0056 9.63577C12.1773 9.63577 12.3425 9.70212 12.4665 9.82097C12.5888 9.94258 12.6579 10.1078 12.6587 10.2802V13.7102C12.6588 13.7533 12.6676 13.7959 12.6843 13.8356C12.7011 13.8753 12.7256 13.9113 12.7564 13.9414C12.8187 14.0008 12.9015 14.0339 12.9876 14.0339C13.0737 14.0339 13.1565 14.0008 13.2189 13.9414C13.2491 13.911 13.273 13.8749 13.2892 13.8352C13.3054 13.7955 13.3136 13.753 13.3134 13.7102V12.4838C13.3134 12.311 13.382 12.1453 13.5042 12.0231C13.6263 11.901 13.792 11.8323 13.9648 11.8323H14.7987L18.6976 6.14514H14.3247L12.499 8.8047L10.6733 6.14514H6.29395L10.2027 11.8454H11.017C11.0616 11.8467 11.106 11.8389 11.1475 11.8224C11.189 11.8058 11.2266 11.781 11.258 11.7493Z" fill="white"/>
<path d="M14.7938 12.1563H13.9665C13.8801 12.1563 13.7972 12.1906 13.7361 12.2517C13.675 12.3128 13.6407 12.3957 13.6407 12.4821V13.7084C13.6407 13.8812 13.5721 14.0469 13.4499 14.1691C13.3277 14.2912 13.162 14.3599 12.9893 14.3599C12.8165 14.3599 12.6508 14.2912 12.5286 14.1691C12.4064 14.0469 12.3378 13.8812 12.3378 13.7084V10.2818C12.3368 10.239 12.3273 10.1968 12.31 10.1577C12.2927 10.1186 12.2678 10.0833 12.2368 10.0538C12.1747 9.99404 12.0918 9.96069 12.0056 9.96069C11.9194 9.96069 11.8365 9.99404 11.7743 10.0538C11.7438 10.0841 11.7196 10.1201 11.7031 10.1598C11.6867 10.1995 11.6782 10.242 11.6782 10.285V11.5195C11.6782 11.6923 11.6096 11.858 11.4874 11.9802C11.3652 12.1024 11.1995 12.171 11.0268 12.171H10.2027L6.29395 17.8614H10.6717L12.499 15.1921L14.3264 17.8614H18.6993L14.7938 12.1563Z" fill="white"/>
</g>
<defs>
<clipPath id="clip0_515_26223">
<rect width="12.4004" height="11.7229" fill="white" transform="translate(6.2998 6.13855)"/>
</clipPath>
</defs>
</svg>
